<svg width="81" height="64" viewBox="0 0 81 64" fill="none" xmlns="http://www.w3.org/2000/svg">
<g clip-path="url(#clip0_383_9417)">
<path opacity="0.3" d="M2.58299 31.8741L15.9135 23.7198L71.3464 47.3888L58.0159 55.5431L2.58299 31.8741Z" fill="black"/>
<path d="M69.0963 31.5441L69.6133 31.8143C70.442 32.267 71.194 33.0332 71.6567 33.9231C72.0055 34.616 72.4533 35.3017 72.5054 36.0162L72.5871 37.1391C72.6169 37.5474 72.3498 37.9773 72.0679 38.2031C71.786 38.4289 71.4743 38.2463 71.452 37.9401L71.3256 36.2048C71.3107 36.0006 71.3948 35.7893 71.3873 35.6872C71.5629 35.3666 71.731 34.9438 71.5034 34.5499C71.0259 33.4559 70.16 32.4928 69.2324 32.0473L68.9207 31.8648C68.9133 31.7627 68.9974 31.5513 69.0963 31.5441Z" fill="#2D3134"/>
<path opacity="0.39" d="M69.0963 31.5441L69.6133 31.8143C70.442 32.267 71.194 33.0332 71.6567 33.9231C72.0055 34.616 72.4533 35.3017 72.5054 36.0162L72.5871 37.1391C72.6169 37.5474 72.3498 37.9773 72.0679 38.2031C71.786 38.4289 71.4743 38.2463 71.452 37.9401L71.3256 36.2048C71.3107 36.0006 71.3948 35.7893 71.3873 35.6872C71.5629 35.3666 71.731 34.9438 71.5034 34.5499C71.0259 33.4559 70.16 32.4928 69.2324 32.0473L68.9207 31.8648C68.9133 31.7627 68.9974 31.5513 69.0963 31.5441Z" fill="black"/>
<path d="M14.3101 34.5087L16.7858 32.9943L16.6817 31.5652L14.1094 31.7526L14.3101 34.5087Z" fill="#2D3134"/>
<path opacity="0.39" d="M14.3101 34.5087L16.7858 32.9943L16.6817 31.5652L14.1094 31.7526L14.3101 34.5087Z" fill="black"/>
<path d="M43.0523 46.7815L45.528 45.2671L45.4239 43.8381L42.8516 44.0255L43.0523 46.7815Z" fill="#2D3134"/>
<path opacity="0.39" d="M43.0523 46.7815L45.528 45.2671L45.4239 43.8381L42.8516 44.0255L43.0523 46.7815Z" fill="black"/>
<path d="M18.6799 31.7274C17.9576 31.3695 17.2651 31.42 16.7853 31.6602L15.4522 32.4756C14.9724 32.7158 14.6213 33.3571 14.6808 34.1737C14.7923 35.7048 16.2198 37.5506 17.7633 38.2591C18.5845 38.6098 19.2771 38.5593 19.7569 38.3191C19.7569 38.3191 21.0899 37.5037 21.1814 37.3944C21.6538 37.0522 21.8145 36.5274 21.7624 35.8128C21.6435 34.1796 20.216 32.3338 18.6799 31.7274Z" fill="#2D3134"/>
<path opacity="0.39" d="M19.7502 38.217C19.9406 38.1005 21.0832 37.4016 21.1822 37.3944C21.6545 37.0521 21.8152 36.5273 21.7632 35.8128C21.7186 35.2003 21.4686 34.5002 21.1272 33.9093L19.7942 34.7248C20.1356 35.3156 20.3855 36.0157 20.4301 36.6282C20.4822 37.3427 20.23 37.9768 19.7502 38.217Z" fill="black"/>
<path d="M19.7106 36.2704C19.7998 37.4953 18.9392 37.9684 17.7073 37.4425C16.4755 36.9165 15.481 35.5523 15.3917 34.3274C15.3025 33.1024 16.1632 32.6293 17.395 33.1552C18.6269 33.6812 19.6214 35.0454 19.7106 36.2704Z" fill="#A9ABB0"/>
<path d="M17.9074 37.4281C16.6755 36.9021 15.681 35.5379 15.5918 34.313C15.5472 33.7005 15.7153 33.2778 16.0962 33.0448C15.6089 33.1829 15.3493 33.7149 15.3939 34.3274C15.4831 35.5523 16.4777 36.9165 17.7095 37.4425C18.3254 37.7055 18.8201 37.6695 19.201 37.4365C18.8201 37.6695 18.4169 37.5962 17.9074 37.4281Z" fill="#808285"/>
<path d="M18.6692 35.6279C18.7064 36.1383 18.3255 36.3713 17.8086 36.1011C17.2916 35.8309 16.8587 35.3493 16.8215 34.8389C16.7843 34.3285 17.1652 34.0956 17.6822 34.3658C18.1991 34.636 18.6321 35.1175 18.6692 35.6279Z" fill="#2D3134"/>
<path opacity="0.39" d="M18.6692 35.6279C18.7064 36.1383 18.3255 36.3713 17.8086 36.1011C17.2916 35.8309 16.8587 35.3493 16.8215 34.8389C16.7843 34.3285 17.1652 34.0956 17.6822 34.3658C18.1991 34.636 18.6321 35.1175 18.6692 35.6279Z" fill="black"/>
<path d="M18.4739 35.7444C18.5111 36.2548 18.1302 36.4878 17.6132 36.2176C17.1037 36.0495 16.6633 35.4658 16.6262 34.9554C16.589 34.4451 16.9699 34.2121 17.4868 34.4823C17.9964 34.6504 18.4367 35.234 18.4739 35.7444Z" fill="#2D3134"/>
<path opacity="0.06" d="M20.4323 36.6282C20.5438 38.1594 19.3097 38.9676 17.7662 38.2591C16.2226 37.5506 14.7952 35.7048 14.6837 34.1737C14.5721 32.6425 15.8063 31.8343 17.3498 32.5428C18.8859 33.1492 20.3133 34.995 20.4323 36.6282Z" fill="black"/>
<path d="M47.4143 43.8981C46.692 43.5403 45.9995 43.5907 45.5197 43.8309L44.1866 44.6463C43.7068 44.8865 43.3557 45.5278 43.4152 46.3444C43.5267 47.8756 44.9541 49.7213 46.4977 50.4298C47.3189 50.7805 48.0114 50.73 48.4912 50.4899C48.4912 50.4899 49.8243 49.6744 49.9158 49.5651C50.3882 49.2229 50.5489 48.6981 50.4968 47.9835C50.3853 46.4524 48.9578 44.6066 47.4143 43.8981Z" fill="#2D3134"/>
<path opacity="0.39" d="M48.4924 50.4898C48.6828 50.3733 49.8254 49.6744 49.9243 49.6672C50.3967 49.3249 50.5574 48.8001 50.5054 48.0856C50.4607 47.4731 50.2108 46.773 49.8694 46.1822L48.5364 46.9976C48.8778 47.5884 49.1277 48.2886 49.1723 48.901C49.2244 49.6156 48.9647 50.1476 48.4924 50.4898Z" fill="black"/>
<path d="M48.4528 48.5432C48.542 49.7681 47.6813 50.2413 46.4495 49.7153C45.2177 49.1893 44.2231 47.8251 44.1339 46.6002C44.0447 45.3753 44.9054 44.9021 46.1372 45.4281C47.3691 45.9541 48.3636 47.3183 48.4528 48.5432Z" fill="#A9ABB0"/>
<path d="M46.6417 49.5988C45.4099 49.0728 44.4154 47.7086 44.3262 46.4837C44.2815 45.8712 44.4497 45.4485 44.8305 45.2155C44.3433 45.3536 44.0837 45.8856 44.1283 46.4981C44.2175 47.723 45.212 49.0872 46.4439 49.6132C47.0598 49.8762 47.5545 49.8402 47.9353 49.6072C47.5545 49.8402 47.1587 49.869 46.6417 49.5988Z" fill="#808285"/>
<path d="M47.3099 47.9079C47.347 48.4183 46.9662 48.6513 46.4492 48.3811C45.9396 48.213 45.4993 47.6293 45.4621 47.119C45.4249 46.6086 45.8058 46.3756 46.3228 46.6458C46.9313 46.8067 47.2727 47.3975 47.3099 47.9079Z" fill="#2D3134"/>
<path opacity="0.39" d="M47.3099 47.9079C47.347 48.4183 46.9662 48.6513 46.4492 48.3811C45.9396 48.213 45.4993 47.6293 45.4621 47.119C45.4249 46.6086 45.8058 46.3756 46.3228 46.6458C46.9313 46.8067 47.2727 47.3975 47.3099 47.9079Z" fill="black"/>
<path d="M47.2239 48.0172C47.2611 48.5276 46.8802 48.7606 46.3632 48.4904C45.8537 48.3223 45.4133 47.7387 45.3762 47.2283C45.339 46.7179 45.7199 46.4849 46.2368 46.7551C46.7464 46.9232 47.1867 47.5069 47.2239 48.0172Z" fill="#2D3134"/>
<path opacity="0.06" d="M49.168 48.7989C49.2795 50.3301 48.0454 51.1383 46.5019 50.4298C44.9584 49.7213 43.5384 47.9776 43.4194 46.3444C43.3004 44.7112 44.542 44.005 46.0855 44.7135C47.629 45.422 49.0565 47.2678 49.168 48.7989Z" fill="black"/>
<path d="M64.0007 27.0925L12.5676 5.08184L1.14145 12.0712L2.25678 27.3827L4.92577 28.5224L14.6741 32.6353C14.9412 32.2054 15.5125 31.8559 16.1061 31.8127C16.6008 31.7766 17.004 31.8499 17.521 32.1201C18.7528 32.6461 19.9378 33.8938 20.5291 35.1847L22.7875 36.149L22.9362 38.1906L31.1485 41.6971L30.9998 39.6556L43.3182 44.9153C43.5778 44.3833 44.1566 44.1359 44.7502 44.0927C45.2449 44.0567 45.648 44.1299 46.165 44.4001C47.4958 44.9189 48.5818 46.1738 49.1732 47.4648L59.7428 51.9284L71.1689 44.939L70.5443 36.3645C70.2469 32.2815 67.6963 28.6704 64.0007 27.0925Z" fill="#68BF50"/>
<path d="M59.8917 53.9699L71.3179 46.9805L71.1692 44.939L59.743 51.9284L59.8917 53.9699Z" fill="#262626"/>
<path opacity="0.3" d="M2.75336 23.3441L2.20312 15.7904L21.0914 23.8554L21.6416 31.4091L2.75336 23.3441Z" fill="black"/>
<path d="M20.8995 23.9719L2.42188 16.0822L2.94236 23.2276L21.42 31.1172L20.8995 23.9719Z" fill="#656565"/>
<path opacity="0.2" d="M20.8995 23.9719L2.42188 16.0822L21.1895 27.9529L20.8995 23.9719Z" fill="black"/>
<path opacity="0.3" d="M3.1328 23.1111L2.62718 16.1699L2.42188 16.0822L2.94236 23.2276L21.42 31.1172L21.4051 30.9131L3.1328 23.1111ZM21.8145 22.8791L22.9298 38.1905L27.036 39.9438L25.9207 24.6323L21.8145 22.8791ZM26.8158 39.652L23.1203 38.0741L22.0347 23.1709L25.7302 24.7488L26.8158 39.652ZM25.9207 24.6323L27.036 39.9438L31.1421 41.6971L30.0268 26.3856L25.9207 24.6323ZM30.9219 41.4052L27.2264 39.8273L26.1408 24.9241L29.8364 26.5021L30.9219 41.4052ZM57.0988 45.7582L56.6155 39.1232L57.0038 38.9923C57.8005 40.3709 58.2088 41.8804 58.3203 43.4116L58.536 46.3718L57.0988 45.7582Z" fill="black"/>
<path d="M56.8125 39.1088L57.2884 45.6417L58.3149 46.08L58.1216 43.426C58.0101 41.8948 57.5028 40.3925 56.8125 39.1088Z" fill="#656565"/>
<path opacity="0.3" d="M51.5833 35.5902L52.5499 48.8602L56.6561 50.6134L55.6895 37.3435L51.5833 35.5902ZM56.4359 50.3216L52.7404 48.7437L51.8035 35.882L55.499 37.46L56.4359 50.3216ZM27.3509 33.3533L26.875 26.8204L29.3387 27.8723L29.8146 34.4052L27.3509 33.3533Z" fill="black"/>
<path d="M27.1016 27.1122L29.1546 27.9888L29.6008 34.1134L27.5477 33.2368L27.1016 27.1122Z" fill="#656565"/>
<path opacity="0.3" d="M53.0146 44.3111L52.5312 37.6761L54.9949 38.7281L55.4782 45.3631L53.0146 44.3111Z" fill="black"/>
<path d="M52.7656 38.0701L54.8187 38.9467L55.2648 45.0713L53.2118 44.1947L52.7656 38.0701Z" fill="#656565"/>
<path opacity="0.3" d="M53.3997 44.0782L52.9684 38.1578L52.7631 38.0701L53.2093 44.1947L55.2623 45.0713L55.2475 44.8672L53.3997 44.0782ZM23.2493 31.6L22.7734 25.0671L25.2371 26.1191L25.713 32.652L23.2493 31.6Z" fill="black"/>
<path d="M22.9922 25.3589L25.0453 26.2356L25.4914 32.3602L23.4383 31.4835L22.9922 25.3589Z" fill="#656565"/>
<path opacity="0.3" d="M27.7349 33.1203L27.3036 27.1999L27.0983 27.1122L27.5445 33.2368L29.5975 34.1134L29.5827 33.9093L27.7349 33.1203ZM23.6288 31.3671L23.1975 25.4466L22.9922 25.3589L23.4383 31.4835L25.4914 32.3602L25.4765 32.156L23.6288 31.3671ZM31.4973 35.6169L30.9471 28.0633L50.8619 36.5666L51.4121 44.1202L31.4973 35.6169Z" fill="black"/>
<path d="M50.6682 36.683L31.1641 28.355L31.6846 35.5004L51.1887 43.8284L50.6682 36.683Z" fill="#656565"/>
<path opacity="0.2" d="M50.6682 36.683L31.1641 28.355L50.921 40.1536L50.6682 36.683Z" fill="black"/>
<path opacity="0.3" d="M31.875 35.3839L31.3694 28.4427L31.1641 28.355L31.6846 35.5004L51.1887 43.8284L51.1739 43.6242L31.875 35.3839Z" fill="black"/>
<path d="M61.5687 49.7427L59.6643 50.9076L59.59 49.8869L61.4943 48.722L61.5687 49.7427Z" fill="#999999"/>
<path d="M58.6369 50.4693L59.6634 50.9076L59.589 49.8869L58.5625 49.4485L58.6369 50.4693Z" fill="#FF9900"/>
<path d="M71.0908 43.9182L69.1864 45.0831L69.1121 44.0624L71.0164 42.8975L71.0908 43.9182ZM63.5626 49.8027L63.6369 50.8235L68.3978 47.9113L68.3235 46.8905L63.5626 49.8027Z" fill="#999999"/>
<path opacity="0.3" d="M59.9095 43.2963C59.7087 40.5403 58.6249 37.9511 56.7943 36.0321L56.5816 35.8424L66.5758 29.6756L66.6821 29.7705C68.4979 31.4853 69.5667 33.8703 69.7526 36.4222L70.0501 40.5053L60.1474 46.5628L59.9095 43.2963Z" fill="black"/>
<path d="M60.319 46.2421L69.8408 40.4176L69.5508 36.4366C69.3723 33.9867 68.3034 31.6018 66.5941 29.9818L56.9808 35.9156C58.8188 37.9367 60.0015 40.5186 60.2097 43.3767L60.319 46.2421Z" fill="#656565"/>
<path opacity="0.1" d="M53.8343 25.4726L48.1212 28.9673L37.8559 24.5841L43.569 21.0894L53.8343 25.4726Z" fill="white"/>
<path opacity="0.06" d="M48.1318 29.1715L48.1169 28.9673L37.8516 24.5842L37.8664 24.7883L48.1318 29.1715Z" fill="black"/>
<path opacity="0.39" d="M48.1364 29.1714L48.1215 28.9673L53.8346 25.4726L53.8495 25.6767L48.1364 29.1714Z" fill="black"/>
<path opacity="0.1" d="M25.0921 13.1998L19.379 16.6945L9.11369 12.3113L14.8268 8.81662L25.0921 13.1998Z" fill="white"/>
<path opacity="0.06" d="M19.3896 16.8986L19.3747 16.6945L9.10938 12.3113L9.12425 12.5155L19.3896 16.8986Z" fill="black"/>
<path opacity="0.39" d="M19.3942 16.8987L19.3793 16.6945L25.0924 13.1998L25.1073 13.4039L19.3942 16.8987Z" fill="black"/>
<path opacity="0.3" d="M59.5313 49.0703L70.9575 42.0809L70.9426 41.8767L59.5164 48.8661L59.5313 49.0703Z" fill="black"/>
<path opacity="0.6" d="M62.4645 48.3437L68.1776 44.849L68.1627 44.6448L62.4496 48.1395L62.4645 48.3437ZM62.4942 48.752L68.2073 45.2573L68.1924 45.0531L62.4794 48.5478L62.4942 48.752ZM62.524 49.1603L68.2371 45.6656L68.2222 45.4614L62.5091 48.9561L62.524 49.1603ZM62.5537 49.5686L68.2668 46.0739L68.2519 45.8697L62.5389 49.3644L62.5537 49.5686Z" fill="black"/>
<path opacity="0.15" d="M59.5469 49.2744L70.9731 42.285L70.9582 42.0808L59.5321 49.0702L59.5469 49.2744Z" fill="white"/>
<path opacity="0.3" d="M59.532 49.0702L56.4524 47.7553L56.4375 47.5511L59.5171 48.8661L59.532 49.0702Z" fill="black"/>
<path opacity="0.15" d="M59.5476 49.2744L56.468 47.9595L56.4531 47.7553L59.5327 49.0703L59.5476 49.2744Z" fill="white"/>
<path opacity="0.3" d="M52.3455 46.002L30.7883 36.7974L30.7734 36.5933L52.3307 45.7979L52.3455 46.002Z" fill="black"/>
<path opacity="0.15" d="M52.3612 46.2062L30.8039 37.0016L30.7891 36.7974L52.3463 46.002L52.3612 46.2062Z" fill="white"/>
<path opacity="0.3" d="M22.5768 33.2909L2.04612 24.5246L2.03125 24.3204L22.562 33.0867L22.5768 33.2909Z" fill="black"/>
<path opacity="0.15" d="M22.5925 33.4951L2.06175 24.7287L2.04688 24.5246L22.5776 33.2909L22.5925 33.4951Z" fill="white"/>
<path d="M14.2842 34.2025C14.2396 33.59 14.4003 33.0653 14.6748 32.7374L2.25 27.3828L2.39871 29.4243L14.3065 34.5087L14.2842 34.2025ZM20.4234 35.192C20.6584 35.6879 20.7871 36.089 20.8243 36.5994C20.8392 36.8036 20.8615 37.1098 20.7774 37.3212L22.9294 38.1906L22.7807 36.1491L20.4234 35.192Z" fill="#262626"/>
<path d="M43.0268 46.3733C42.9822 45.7608 43.1429 45.236 43.3184 44.9154L31 39.6556L31.1487 41.6971L43.0565 46.7816L43.0268 46.3733ZM49.2723 47.4576C49.5074 47.9536 49.5371 48.3619 49.5743 48.8722C49.5966 49.1785 49.6115 49.3826 49.5274 49.594L59.8917 53.9699L59.743 51.9284L49.2723 47.4576Z" fill="#262626"/>
<path opacity="0.5" d="M60.1478 46.5627L60.0735 45.542L69.9761 39.4845L70.0505 40.5053L60.1478 46.5627ZM57.1054 45.7582L57.031 44.7374L58.4682 45.3511L58.5425 46.3718L57.1054 45.7582Z" fill="black"/>
<path d="M65.1364 40.0418C65.03 39.9469 64.9311 39.9541 64.8396 40.0634L61.3998 44.7265C61.3083 44.8358 61.3157 44.9379 61.4221 45.0328C61.5285 45.1276 61.6274 45.1204 61.7189 45.0111L62.619 43.7141L62.6934 44.7349L62.9753 44.5091L62.8935 43.3863L65.1513 40.2459C65.2502 40.2387 65.2428 40.1366 65.1364 40.0418ZM68.5494 37.7408C68.443 37.6459 68.3441 37.6531 68.2526 37.7624L64.8128 42.4255C64.7213 42.5348 64.7287 42.6369 64.8351 42.7318C64.9414 42.8267 65.0404 42.8194 65.1319 42.7102L65.9479 41.6245L66.0297 42.7474L66.3191 42.6237L66.215 41.1946L68.5643 37.9449C68.6632 37.9377 68.6558 37.8356 68.5494 37.7408Z" fill="#2D3134"/>
<path opacity="0.2" d="M63.6236 31.5322C64.2373 33.1294 64.653 34.741 64.7794 36.4763C64.9951 39.4365 64.4043 42.2502 63.2892 44.6917L65.0031 43.6433C65.0031 43.6433 68.312 39.9132 67.9477 34.9115C67.8138 33.0741 67.2842 31.2655 66.4727 29.6828L63.6236 31.5322ZM29.5897 34.0113L29.3369 30.5407L27.1946 28.4392L27.3805 30.9911L29.5897 34.0113ZM25.2903 29.6041L25.1267 27.3584L22.9844 25.2568L23.081 26.5838L25.2903 29.6041Z" fill="black"/>
<path opacity="0.2" d="M60.6264 49.499C60.4699 49.7302 60.4524 49.9966 60.5873 50.0941C60.7222 50.1917 60.9585 50.0833 61.115 49.8521C61.2715 49.6209 61.2891 49.3545 61.1542 49.257C61.0193 49.1595 60.783 49.2678 60.6264 49.499Z" fill="black"/>
<path opacity="0.2" d="M60.0327 49.8097C59.8762 50.0409 59.8586 50.3073 59.9935 50.4048C60.1284 50.5023 60.3647 50.394 60.5212 50.1628C60.6778 49.9316 60.6953 49.6652 60.5604 49.5677C60.4255 49.4702 60.1892 49.5785 60.0327 49.8097Z" fill="black"/>
<path opacity="0.2" d="M70.2436 43.6682C70.0871 43.8993 70.0696 44.1658 70.2045 44.2633C70.3394 44.3608 70.5756 44.2524 70.7322 44.0212C70.8887 43.7901 70.9063 43.5236 70.7714 43.4261C70.6364 43.3286 70.4002 43.437 70.2436 43.6682Z" fill="black"/>
<path opacity="0.2" d="M69.6577 43.9789C69.5012 44.2101 69.4836 44.4765 69.6185 44.574C69.7534 44.6715 69.9897 44.5631 70.1462 44.332C70.3028 44.1008 70.3203 43.8343 70.1854 43.7368C70.0505 43.6393 69.8142 43.7477 69.6577 43.9789Z" fill="black"/>
<path opacity="0.2" d="M61.5655 49.7427L59.6611 50.9076L59.5868 49.8869L61.5655 49.7427ZM71.0873 43.9182L69.1829 45.0831L71.0129 42.8975L71.0873 43.9182Z" fill="white"/>
<path d="M58.5414 38.2646L59.0509 38.4327C59.8796 38.8854 60.6316 39.6516 61.0943 40.5414C61.4431 41.2344 61.8909 41.9201 61.943 42.6346L62.0248 43.7574C62.0545 44.1657 61.7874 44.5957 61.5055 44.8214C61.2236 45.0472 60.9119 44.8647 60.8896 44.5585L60.7632 42.8232C60.7483 42.619 60.8324 42.4076 60.8249 42.3056C61.0005 41.9849 61.1686 41.5622 60.941 41.1683C60.4635 40.0743 59.5977 39.1112 58.6701 38.6657L58.3584 38.4831C58.2594 38.4903 58.3435 38.279 58.5414 38.2646Z" fill="#2D3134"/>
<path opacity="0.39" d="M70.5375 36.3645C70.3144 33.3022 68.919 30.5306 66.6926 28.6404L55.2664 35.6298C57.4928 37.52 58.8882 40.2916 59.1113 43.3539L59.8846 53.9699L71.3108 46.9805L70.5375 36.3645Z" fill="black"/>
<path opacity="0.06" d="M52.5663 33.9798L1.14062 12.0712L2.40467 29.4242L14.3125 34.5087L14.2902 34.2025C14.2456 33.59 14.4063 33.0652 14.6808 32.7374C14.9478 32.3074 15.5191 31.958 16.1127 31.9147C16.6074 31.8787 17.0106 31.9519 17.5276 32.2221C18.7594 32.7481 19.9444 33.9958 20.5357 35.2868C20.7708 35.7828 20.8994 36.1839 20.9366 36.6942C20.9515 36.8984 20.9738 37.2046 20.8897 37.416L43.1618 46.8764L43.1321 46.4681C43.0875 45.8556 43.2482 45.3308 43.4237 45.0102C43.6834 44.4782 44.2621 44.2308 44.8557 44.1875C45.3504 44.1515 45.7536 44.2248 46.2706 44.495C47.6013 45.0137 48.6874 46.2687 49.2787 47.5596C49.5138 48.0556 49.5435 48.4639 49.5807 48.9743C49.603 49.2805 49.6179 49.4847 49.5338 49.696L59.8906 53.9699L59.1173 43.3539C58.8199 39.2709 56.2693 35.6598 52.5663 33.9798Z" fill="black"/>
</g>
<defs>
<clipPath id="clip0_383_9417">
<rect width="79.3583" height="57.3143" fill="white" transform="translate(-3.26562 6.23492) rotate(-4.16623)"/>
</clipPath>
</defs>
</svg>
