<svg width="22" height="26" viewBox="0 0 22 26" fill="none" xmlns="http://www.w3.org/2000/svg">
<path d="M21.0681 17.6654C20.9773 17.556 20.8881 17.4466 20.8006 17.3411C19.5975 15.8859 18.8696 15.0076 18.8696 10.888C18.8696 8.75516 18.3594 7.00516 17.3537 5.69266C16.6121 4.72305 15.6097 3.9875 14.2884 3.44391C14.2714 3.43445 14.2563 3.42204 14.2436 3.40727C13.7684 1.81586 12.4679 0.75 11.0012 0.75C9.53446 0.75 8.23454 1.81586 7.75931 3.40562C7.74662 3.41986 7.73165 3.43187 7.71501 3.44117C4.63173 4.71047 3.13329 7.1457 3.13329 10.8863C3.13329 15.0076 2.40649 15.8859 1.20227 17.3395C1.11477 17.445 1.02563 17.5522 0.934852 17.6637C0.700352 17.9466 0.551778 18.2906 0.506711 18.6552C0.461644 19.0198 0.521972 19.3897 0.680555 19.7211C1.01798 20.432 1.73712 20.8734 2.55798 20.8734H19.4504C20.2674 20.8734 20.9816 20.4326 21.3202 19.7249C21.4794 19.3935 21.5403 19.0233 21.4956 18.6582C21.451 18.2932 21.3026 17.9487 21.0681 17.6654ZM11.0012 25.25C11.7914 25.2494 12.5668 25.0348 13.245 24.6292C13.9232 24.2236 14.479 23.642 14.8534 22.946C14.871 22.9127 14.8797 22.8753 14.8787 22.8376C14.8776 22.7999 14.8668 22.7631 14.8473 22.7308C14.8278 22.6985 14.8003 22.6718 14.7675 22.6532C14.7346 22.6347 14.6975 22.625 14.6598 22.625H7.34368C7.3059 22.6249 7.26874 22.6345 7.2358 22.653C7.20286 22.6715 7.17528 22.6982 7.15573 22.7305C7.13618 22.7629 7.12534 22.7997 7.12425 22.8375C7.12317 22.8752 7.13188 22.9126 7.14954 22.946C7.52389 23.6419 8.07958 24.2234 8.75768 24.6291C9.43578 25.0347 10.211 25.2493 11.0012 25.25Z" fill="#828282"/>
</svg>
