<svg width="21" height="22" viewBox="0 0 21 22" fill="none" xmlns="http://www.w3.org/2000/svg">
<path d="M11.6667 6.33333V1.66667C11.6667 1.33611 11.7787 1.05883 12.0027 0.834833C12.2259 0.611611 12.5028 0.5 12.8333 0.5H19.8333C20.1639 0.5 20.4408 0.611611 20.664 0.834833C20.888 1.05883 21 1.33611 21 1.66667V6.33333C21 6.66389 20.888 6.94078 20.664 7.164C20.4408 7.388 20.1639 7.5 19.8333 7.5H12.8333C12.5028 7.5 12.2259 7.388 12.0027 7.164C11.7787 6.94078 11.6667 6.66389 11.6667 6.33333ZM0 11V1.66667C0 1.33611 0.112 1.05883 0.336 0.834833C0.559222 0.611611 0.836111 0.5 1.16667 0.5H8.16667C8.49722 0.5 8.7745 0.611611 8.9985 0.834833C9.22172 1.05883 9.33333 1.33611 9.33333 1.66667V11C9.33333 11.3306 9.22172 11.6074 8.9985 11.8307C8.7745 12.0547 8.49722 12.1667 8.16667 12.1667H1.16667C0.836111 12.1667 0.559222 12.0547 0.336 11.8307C0.112 11.6074 0 11.3306 0 11ZM11.6667 20.3333V11C11.6667 10.6694 11.7787 10.3922 12.0027 10.1682C12.2259 9.94494 12.5028 9.83333 12.8333 9.83333H19.8333C20.1639 9.83333 20.4408 9.94494 20.664 10.1682C20.888 10.3922 21 10.6694 21 11V20.3333C21 20.6639 20.888 20.9408 20.664 21.164C20.4408 21.388 20.1639 21.5 19.8333 21.5H12.8333C12.5028 21.5 12.2259 21.388 12.0027 21.164C11.7787 20.9408 11.6667 20.6639 11.6667 20.3333ZM0 20.3333V15.6667C0 15.3361 0.112 15.0588 0.336 14.8348C0.559222 14.6116 0.836111 14.5 1.16667 14.5H8.16667C8.49722 14.5 8.7745 14.6116 8.9985 14.8348C9.22172 15.0588 9.33333 15.3361 9.33333 15.6667V20.3333C9.33333 20.6639 9.22172 20.9408 8.9985 21.164C8.7745 21.388 8.49722 21.5 8.16667 21.5H1.16667C0.836111 21.5 0.559222 21.388 0.336 21.164C0.112 20.9408 0 20.6639 0 20.3333Z" fill="#828282"/>
</svg>
