<svg width="19" height="22" viewBox="0 0 19 22" fill="none" xmlns="http://www.w3.org/2000/svg">
<path fill-rule="evenodd" clip-rule="evenodd" d="M4.24941 2.54167C4.24941 2.28617 6.88374 0.5 9.49941 0.5C12.1151 0.5 14.7494 2.28675 14.7494 2.54167C14.7494 3.45167 14.6526 3.99067 14.5709 4.28408C14.5167 4.47658 14.3364 4.58333 14.1363 4.58333H4.86249C4.66241 4.58333 4.48216 4.47658 4.42791 4.28408C4.34624 3.99067 4.24941 3.45167 4.24941 2.54167ZM8.62441 2.25C8.4697 2.25 8.32133 2.31146 8.21193 2.42085C8.10253 2.53025 8.04108 2.67862 8.04108 2.83333C8.04108 2.98804 8.10253 3.13642 8.21193 3.24581C8.32133 3.35521 8.4697 3.41667 8.62441 3.41667H10.3744C10.5291 3.41667 10.6775 3.35521 10.7869 3.24581C10.8963 3.13642 10.9577 2.98804 10.9577 2.83333C10.9577 2.67862 10.8963 2.53025 10.7869 2.42085C10.6775 2.31146 10.5291 2.25 10.3744 2.25H8.62441ZM4.85491 8.2105C2.91241 7.60967 3.40241 6.53633 4.14324 5.75H15.0177C15.6104 6.50717 15.9283 7.52858 14.1369 8.13992C14.2101 8.78976 14.146 9.44774 13.9485 10.0712C13.7511 10.6946 13.4249 11.2696 12.991 11.7589C12.557 12.2482 12.0251 12.6407 11.4297 12.9112C10.8343 13.1817 10.1887 13.324 9.53478 13.329C8.88084 13.3339 8.23316 13.2013 7.63375 12.9399C7.03434 12.6784 6.49657 12.2939 6.05532 11.8112C5.61407 11.3285 5.27919 10.7585 5.07239 10.1381C4.8656 9.51773 4.7915 8.86079 4.85491 8.20992V8.2105ZM9.34074 8.66667C10.8819 8.66667 12.0766 8.585 12.9924 8.44267C13.0225 8.91827 12.9552 9.39501 12.7945 9.84367C12.6339 10.2923 12.3833 10.7034 12.0581 11.0518C11.733 11.4002 11.3401 11.6786 10.9036 11.8697C10.4671 12.0609 9.99611 12.161 9.51956 12.1637C9.04301 12.1665 8.57093 12.0719 8.13224 11.8857C7.69354 11.6996 7.29749 11.4258 6.96834 11.0812C6.6392 10.7365 6.3839 10.3283 6.21809 9.88154C6.05228 9.43476 5.97945 8.95883 6.00408 8.48292C6.85749 8.60075 7.95124 8.66667 9.34074 8.66667ZM14.4093 17.1833C13.8817 16.3601 13.1554 15.6829 12.2974 15.214C11.4394 14.7451 10.4772 14.4995 9.49941 14.5C8.52122 14.4994 7.5586 14.7449 6.70024 15.2141C5.84189 15.6832 5.11541 16.3608 4.58774 17.1845C4.39191 16.8829 4.09114 16.6646 3.74366 16.572L2.61666 16.2704C2.24312 16.1703 1.84509 16.2226 1.51012 16.4159C1.17516 16.6092 0.930694 16.9276 0.830494 17.3012L0.377828 18.9917C0.328251 19.1767 0.315602 19.3696 0.340602 19.5595C0.365602 19.7494 0.427762 19.9325 0.523532 20.0984C0.619302 20.2642 0.746806 20.4096 0.898763 20.5262C1.05072 20.6428 1.22415 20.7283 1.40916 20.7778L2.53558 21.08C2.72505 21.131 2.92289 21.1432 3.11718 21.1157C3.31147 21.0882 3.49818 21.0217 3.66608 20.9202C3.66654 21.0749 3.72844 21.2231 3.83817 21.3321C3.94789 21.4412 4.09645 21.5022 4.25116 21.5017C4.40587 21.5013 4.55406 21.4394 4.66313 21.3297C4.7722 21.2199 4.83321 21.0714 4.83274 20.9167V20.3333C4.83274 20.1111 4.84849 19.8923 4.87824 19.6782L7.91391 20.492C8.05482 20.7936 8.27884 21.0488 8.55967 21.2275C8.84051 21.4063 9.16651 21.5013 9.49941 21.5013C9.83232 21.5013 10.1583 21.4063 10.4391 21.2275C10.72 21.0488 10.944 20.7936 11.0849 20.492L14.1206 19.6782C14.1503 19.8923 14.1661 20.1111 14.1661 20.3333V20.9167C14.1653 21.0714 14.226 21.2201 14.3349 21.33C14.4437 21.4399 14.5918 21.5021 14.7465 21.5029C14.9012 21.5037 15.0499 21.443 15.1598 21.3341C15.2698 21.2253 15.332 21.0772 15.3327 20.9225C15.6594 21.1185 16.0631 21.1867 16.4603 21.08L17.5873 20.7784C17.7723 20.7289 17.9458 20.6434 18.0977 20.5268C18.2497 20.4102 18.3772 20.2648 18.473 20.0989C18.5687 19.9331 18.6309 19.75 18.6559 19.5601C18.6809 19.3702 18.6682 19.1772 18.6187 18.9923L18.1654 17.3018C18.0652 16.9282 17.8207 16.6098 17.4858 16.4165C17.1508 16.2232 16.7528 16.1709 16.3792 16.271L15.2522 16.5726C14.9056 16.6649 14.6053 16.8822 14.4093 17.1827V17.1833ZM5.18449 18.5524C5.4996 17.7903 6.01084 17.1252 6.66626 16.6247C7.32168 16.1242 8.09791 15.8062 8.91608 15.7028V18.0998C8.65466 18.1925 8.41895 18.3459 8.22831 18.5474C8.03768 18.7489 7.89754 18.9927 7.81941 19.2588L5.18449 18.553V18.5524ZM13.8143 18.5524C13.4992 17.7904 12.9879 17.1253 12.3325 16.6248C11.6771 16.1243 10.9009 15.8062 10.0827 15.7028V18.0998C10.6101 18.2864 11.0219 18.7181 11.1794 19.2588L13.8143 18.553V18.5524ZM9.49941 20.3333C9.65412 20.3333 9.80249 20.2719 9.91189 20.1625C10.0213 20.0531 10.0827 19.9047 10.0827 19.75C10.0827 19.5953 10.0213 19.4469 9.91189 19.3375C9.80249 19.2281 9.65412 19.1667 9.49941 19.1667C9.3447 19.1667 9.19633 19.2281 9.08693 19.3375C8.97754 19.4469 8.91608 19.5953 8.91608 19.75C8.91608 19.9047 8.97754 20.0531 9.08693 20.1625C9.19633 20.2719 9.3447 20.3333 9.49941 20.3333Z" fill="#828282"/>
</svg>
