<svg width="19" height="18" viewBox="0 0 19 18" fill="none" xmlns="http://www.w3.org/2000/svg">
<path d="M18.7422 7.11348C18.8305 6.90025 18.8536 6.6656 18.8085 6.43924C18.7635 6.21288 18.6523 6.00497 18.489 5.84182L12.6557 0.00848389L11.006 1.65815L14.8479 5.49998H0.164198V7.83332H17.6642C17.8949 7.83337 18.1205 7.76502 18.3124 7.63689C18.5042 7.50876 18.6538 7.32662 18.7422 7.11348ZM0.252865 10.8865C0.164542 11.0997 0.141453 11.3344 0.186517 11.5607C0.231582 11.7871 0.342776 11.995 0.506031 12.1581L6.33937 17.9915L7.98903 16.3418L4.1472 12.5H18.8309V10.1666H1.33086C1.1001 10.1664 0.874472 10.2347 0.682562 10.3629C0.490653 10.491 0.341104 10.6733 0.252865 10.8865Z" fill="#828282"/>
</svg>
