<svg width="44" height="40" viewBox="0 0 44 40" fill="none" xmlns="http://www.w3.org/2000/svg">
<path d="M7.48654 13.9938C5.51615 14.4896 3.79462 15.6879 2.64541 17.3634C1.49619 19.039 0.998383 21.0766 1.24552 23.0933C1.49265 25.1101 2.46772 26.9671 3.98751 28.3157C5.50731 29.6642 7.46723 30.4113 9.49904 30.4167H11.5824M21.999 20V38.75V20ZM21.999 20L16.7907 24.1667L21.999 20ZM21.999 20L27.2074 24.1667L21.999 20Z" stroke="#68BF50" stroke-width="2" stroke-linecap="round" stroke-linejoin="round"/>
<path d="M29.9781 9.87085C29.266 7.0512 27.5085 4.60781 25.0617 3.03597C22.6149 1.46412 19.662 0.881451 16.8015 1.40606C13.9411 1.93067 11.3871 3.52331 9.65737 5.86113C7.92763 8.19896 7.15153 11.107 7.48641 13.9958C7.48641 13.9958 7.80516 15.8333 8.45724 16.875" stroke="#68BF50" stroke-width="2" stroke-linecap="round" stroke-linejoin="round"/>
<path d="M32.4154 30.4167C33.8863 30.4157 35.3403 30.1032 36.6817 29.4997C38.0232 28.8963 39.2216 28.0156 40.1981 26.9156C41.1747 25.8156 41.9072 24.5213 42.3474 23.1178C42.7877 21.7143 42.9257 20.2335 42.7524 18.7728C42.5791 17.3121 42.0984 15.9047 41.342 14.6432C40.5856 13.3817 39.5706 12.2947 38.3638 11.4537C37.157 10.6128 35.7857 10.0369 34.3404 9.76409C32.895 9.49127 31.4082 9.52765 29.9779 9.87084L27.207 10.625" stroke="#68BF50" stroke-width="2" stroke-linecap="round" stroke-linejoin="round"/>
</svg>
